# xmcd
# 
# Track frame offsets:
#     150
#     11320
#     34852
#     52229
#     82791
#     94871
#     139691
#     173024
#     199906
# 
# Disc length: 3207
# 
# Revision: 0
# Processed by: cddbd v1.5.2PL0 Copyright (c) Steve Scherf et al.
# Submitted via: fre:ac v1.0.17
# 
DISCID=6c0c8509
DTITLE=The Clayton Miller Blues Band - Live at Duncan Hall
DYEAR=2000
DGENRE=Blues
TTITLE0=Emerge
TTITLE1=Reconsider Baby
TTITLE2=Found Someone New
TTITLE3=Kind Hearted Woman
TTITLE4=Low Down Dirty Blues
TTITLE5=My Time After Awhile
TTITLE6=Stormy Monday
TTITLE7=I Gotta Leave
TTITLE8=Sky Is Cryin'
EXTD=
EXTT0=
EXTT1=
EXTT2=
EXTT3=
EXTT4=
EXTT5=
EXTT6=
EXTT7=
EXTT8=
PLAYORDER=
